<svg width="994" height="676" viewBox="0 0 994 676" fill="none" xmlns="http://www.w3.org/2000/svg">
<rect y="75" width="994" height="601" rx="183" fill="white"/>
<path d="M174 676L226.157 9.78003C226.749 2.21583 235.219 -1.95926 241.579 2.17808L403.956 107.807C406.065 109.179 408.528 109.91 411.045 109.91H527V676H174Z" fill="#F5911F"/>
<path d="M819 676L766.843 9.78003C766.251 2.21583 757.781 -1.95926 751.421 2.17808L589.044 107.807C586.935 109.179 584.472 109.91 581.955 109.91H466V676H819Z" fill="#F5911F"/>
<circle cx="330.412" cy="286.412" r="39.4118" fill="#603232"/>
<circle cx="39.4118" cy="39.4118" r="39.4118" transform="matrix(-1 0 0 1 702.941 247)" fill="#603232"/>
<path d="M668 434.406L600.747 484.405C597.787 486.605 597.674 490.146 600.49 492.449L654.276 536.435" stroke="#603232" stroke-width="30" stroke-linecap="round"/>
<path d="M325 434.406L392.253 484.405C395.213 486.605 395.327 490.146 392.511 492.449L338.724 536.435" stroke="#603232" stroke-width="30" stroke-linecap="round"/>
<path d="M520.025 414L472.972 558.299" stroke="#603232" stroke-width="30" stroke-linecap="round"/>
</svg>
